<?xml version="1.0" encoding="UTF-8" standalone="no"?>
<!DOCTYPE svg PUBLIC "-//W3C//DTD SVG 1.1//EN" "http://www.w3.org/Graphics/SVG/1.1/DTD/svg11.dtd">
<!-- Created with Vectornator (http://vectornator.io/) -->
<svg height="100%" stroke-miterlimit="10" style="fill-rule:nonzero;clip-rule:evenodd;stroke-linecap:round;stroke-linejoin:round;" version="1.1" viewBox="0 0 500 500" width="100%" xml:space="preserve" xmlns="http://www.w3.org/2000/svg" xmlns:xlink="http://www.w3.org/1999/xlink">
<defs/>
<path d="M0 0L500 0L500 500L0 500L0 0Z" fill="#ffffff" fill-opacity="0" fill-rule="nonzero" opacity="1" stroke="none"/>
<clipPath id="ArtboardFrame">
<rect height="500" width="500" x="0" y="0"/>
</clipPath>
<g clip-path="url(#ArtboardFrame)" id="Ebene-1">
<g opacity="1">
<path d="M192.311 155.861C192.311 124.317 217.883 98.7455 249.427 98.7455C280.971 98.7455 306.542 124.317 306.542 155.861C306.542 187.405 280.971 212.976 249.427 212.976C217.883 212.976 192.311 187.405 192.311 155.861Z" fill="#ffffff" fill-rule="nonzero" opacity="1" stroke="none"/>
<path d="M350.6 58.9872C372.602 74.8316 381.554 100.014 370.594 115.234C359.634 130.454 332.913 129.948 310.91 114.103C288.908 98.2591 279.956 73.0765 290.916 57.8566C301.876 42.6367 328.597 43.1429 350.6 58.9872Z" fill="#ffffff" fill-rule="nonzero" opacity="1" stroke="none"/>
<path d="M376.66 67.5192C391.484 77.6342 407.822 79.519 413.153 71.7143C418.501 63.9012 410.832 49.3378 396.031 39.2147C381.198 29.0882 364.868 27.211 359.513 35.0281C354.181 42.8336 361.851 57.3879 376.66 67.5192Z" fill="#ffffff" fill-rule="nonzero" opacity="1" stroke="none"/>
<path d="M245.772 42.8336C267.989 43.1318 286.133 33.8752 286.296 22.1822C286.452 10.4603 268.577 0.693021 246.377 0.382374C224.144 0.088701 206.015 9.33686 205.836 21.066C205.696 32.7632 223.563 42.5348 245.772 42.8336Z" fill="#ffffff" fill-rule="nonzero" opacity="1" stroke="none"/>
<path d="M127.689 115.726C138.646 130.948 165.376 130.433 187.373 114.598C209.385 98.7429 218.33 73.5706 207.373 58.3408C196.399 43.1149 169.677 43.6307 147.682 59.4779C125.669 75.3039 116.724 100.497 127.689 115.726Z" fill="#ffffff" fill-rule="nonzero" opacity="1" stroke="none"/>
<path d="M122.726 69.1219C137.542 58.9872 145.212 44.4362 139.881 36.6264C134.517 28.8103 118.188 30.6908 103.371 40.813C88.5626 50.9404 80.8925 65.4956 86.2399 73.3169C91.5715 81.1216 107.909 79.2368 122.726 69.1219Z" fill="#ffffff" fill-rule="nonzero" opacity="1" stroke="none"/>
<path d="M98.736 249.433C98.736 217.888 124.309 192.315 155.854 192.315C187.4 192.315 212.973 217.888 212.973 249.433C212.973 280.979 187.4 306.552 155.854 306.552C124.309 306.552 98.736 280.979 98.736 249.433Z" fill="#ffffff" fill-rule="nonzero" opacity="1" stroke="none"/>
<path d="M114.099 310.91C129.945 332.914 130.451 359.638 115.23 370.599C100.009 381.56 74.8239 372.608 58.9781 350.605C43.1324 328.601 42.6261 301.877 57.8473 290.916C73.0686 279.954 98.2534 288.906 114.099 310.91Z" fill="#ffffff" fill-rule="nonzero" opacity="1" stroke="none"/>
<path d="M35.3964 359.154C27.5791 364.505 29.4514 380.838 39.583 395.663C49.7061 410.468 64.2601 418.138 72.0775 412.79C79.8791 407.459 77.9982 391.122 67.8824 376.297C57.752 361.484 43.1968 353.823 35.3964 359.154Z" fill="#ffffff" fill-rule="nonzero" opacity="1" stroke="none"/>
<path d="M42.8295 245.781C42.5264 223.568 32.7543 205.701 21.0625 205.844C9.32822 206.024 0.0797658 224.152 0.38223 246.381C0.6853 268.582 10.4569 286.457 22.182 286.305C33.875 286.142 43.1313 267.993 42.8295 245.781Z" fill="#ffffff" fill-rule="nonzero" opacity="1" stroke="none"/>
<path d="M58.3321 207.377C73.5662 218.339 98.7342 209.389 114.598 187.38C130.429 165.381 130.944 138.65 115.718 127.693C100.484 116.732 75.2991 125.678 59.4692 147.686C43.6223 169.686 43.1144 196.408 58.3321 207.377Z" fill="#ffffff" fill-rule="nonzero" opacity="1" stroke="none"/>
<path d="M69.1177 122.734C79.2245 107.913 81.1132 91.5754 73.3043 86.2444C65.4869 80.9006 50.9323 88.5671 40.8098 103.375C30.6861 118.192 28.8059 134.529 36.6226 139.881C44.4236 145.212 58.9782 137.551 69.1177 122.734Z" fill="#ffffff" fill-rule="nonzero" opacity="1" stroke="none"/>
<path d="M291.701 385.283C314 362.98 314.017 326.805 291.718 304.499C269.411 282.192 233.228 282.204 210.923 304.507C188.615 326.814 188.624 362.98 210.93 385.287C233.237 407.59 269.396 407.59 291.701 385.283Z" fill="#ffffff" fill-rule="nonzero" opacity="1" stroke="none"/>
<path d="M150.143 441.769C128.14 425.921 119.191 400.736 130.154 385.516C141.117 370.296 167.84 370.805 189.843 386.653C211.845 402.501 220.794 427.687 209.832 442.907C198.869 458.127 172.145 457.617 150.143 441.769Z" fill="#ffffff" fill-rule="nonzero" opacity="1" stroke="none"/>
<path d="M124.451 432.864C109.626 422.75 93.2881 420.865 87.9571 428.669C82.6091 436.487 90.2798 451.046 105.088 461.169C119.913 471.296 136.242 473.173 141.599 465.36C146.93 457.551 139.26 442.996 124.451 432.864Z" fill="#ffffff" fill-rule="nonzero" opacity="1" stroke="none"/>
<path d="M254.962 457.918C232.754 457.62 214.602 466.876 214.447 478.573C214.291 490.291 232.166 500.062 254.366 500.369C276.599 500.664 294.719 491.42 294.899 479.69C295.046 467.992 277.179 458.221 254.962 457.918Z" fill="#ffffff" fill-rule="nonzero" opacity="1" stroke="none"/>
<path d="M373.054 385.029C362.096 369.804 335.366 370.319 313.362 386.158C291.358 402.009 282.412 427.186 293.378 442.415C304.343 457.636 331.057 457.126 353.061 441.274C375.073 425.452 384.019 400.259 373.054 385.029Z" fill="#ffffff" fill-rule="nonzero" opacity="1" stroke="none"/>
<path d="M377.763 431.385C362.947 441.52 355.293 456.075 360.625 463.879C365.973 471.697 382.31 469.816 397.126 459.693C411.935 449.57 419.597 435.011 414.257 427.194C408.926 419.389 392.588 421.273 377.763 431.385Z" fill="#ffffff" fill-rule="nonzero" opacity="1" stroke="none"/>
<path d="M287.77 251.318C287.77 219.772 313.343 194.199 344.889 194.199C376.434 194.199 402.007 219.772 402.007 251.318C402.007 282.864 376.434 308.437 344.889 308.437C313.343 308.437 287.77 282.864 287.77 251.318Z" fill="#ffffff" fill-rule="nonzero" opacity="1" stroke="none"/>
<path d="M441.756 150.147C425.934 128.135 400.741 119.189 385.515 130.155C370.29 141.112 370.797 167.838 386.644 189.847C402.491 211.842 427.676 220.8 442.901 209.835C458.126 198.869 457.611 172.147 441.756 150.147Z" fill="#ffffff" fill-rule="nonzero" opacity="1" stroke="none"/>
<path d="M465.723 141.234C473.54 135.879 471.659 119.545 461.528 104.72C451.406 89.9161 436.85 82.2502 429.033 87.5939C421.232 92.9252 423.113 109.263 433.228 124.088C443.358 138.9 457.914 146.561 465.723 141.234Z" fill="#ffffff" fill-rule="nonzero" opacity="1" stroke="none"/>
<path d="M478.569 214.451C466.875 214.61 457.619 232.759 457.914 254.971C458.209 277.188 467.988 295.054 479.681 294.907C491.415 294.728 500.663 276.603 500.368 254.37C500.058 232.17 490.286 214.295 478.569 214.451Z" fill="#ffffff" fill-rule="nonzero" opacity="1" stroke="none"/>
<path d="M385.025 373.058C400.25 384.024 425.443 375.078 441.265 353.065C457.113 331.066 457.636 304.348 442.41 293.378C427.177 282.417 402 291.367 386.153 313.375C370.314 335.375 369.8 362.105 385.025 373.058Z" fill="#ffffff" fill-rule="nonzero" opacity="1" stroke="none"/>
<path d="M431.38 377.777C421.265 392.593 419.384 408.934 427.185 414.266C435.002 419.61 449.565 411.94 459.688 397.131C469.812 382.315 471.692 365.981 463.875 360.626C456.066 355.295 441.511 362.956 431.38 377.777Z" fill="#ffffff" fill-rule="nonzero" opacity="1" stroke="none"/>
</g>
</g>
</svg>
